# Blender 4.0.2
# www.blender.org
o Plane
v 0.259393 1.724930 0.691667
v 0.000000 0.000000 0.691667
v -0.000000 1.950000 -0.691667
v 0.000000 0.000000 -0.691667
v -0.000000 1.950000 -0.565909
v -0.000000 1.950000 -0.440152
v -0.000000 1.950000 -0.314394
v -0.000000 1.950000 -0.188636
v -0.000000 1.950000 -0.062879
v -0.000000 1.950000 0.062879
v 0.012910 1.939595 0.188636
v 0.049022 1.911789 0.314394
v 0.108576 1.868325 0.440152
v 0.191672 1.796496 0.565909
v 0.151917 1.650876 0.691667
v 0.059642 1.573798 0.691667
v 0.007636 1.418182 0.691667
v -0.000000 1.240909 0.691667
v -0.000000 1.063636 0.691667
v 0.000000 0.886364 0.691667
v 0.000000 0.709091 0.691667
v 0.000000 0.531818 0.691667
v 0.000000 0.354545 0.691667
v 0.000000 0.177273 0.691667
v 0.000000 0.000000 0.565909
v 0.000000 0.000000 0.440152
v 0.000000 0.000000 0.314394
v 0.000000 0.000000 0.188636
v 0.000000 0.000000 0.062879
v 0.000000 0.000000 -0.062879
v 0.000000 0.000000 -0.188636
v 0.000000 0.000000 -0.314394
v 0.000000 0.000000 -0.440152
v 0.000000 0.000000 -0.565909
v 0.000000 0.177273 -0.691667
v 0.000000 0.354545 -0.691667
v 0.000000 0.531818 -0.691667
v 0.000000 0.709091 -0.691667
v 0.000000 0.886364 -0.691667
v -0.000000 1.063636 -0.691667
v -0.000000 1.240909 -0.691667
v -0.000000 1.418182 -0.691667
v -0.000000 1.595455 -0.691667
v -0.000000 1.772727 -0.691667
v 0.125329 1.674688 0.565909
v 0.081947 1.724991 0.440152
v 0.034587 1.772727 0.314394
v 0.007388 1.772727 0.188636
v -0.000000 1.772727 0.062879
v -0.000000 1.772727 -0.062879
v -0.000000 1.772727 -0.188636
v -0.000000 1.772727 -0.314394
v -0.000000 1.772727 -0.440152
v -0.000000 1.772727 -0.565909
v 0.049524 1.585820 0.565909
v 0.029507 1.595455 0.440152
v 0.010071 1.595455 0.314394
v 0.000032 1.595455 0.188636
v -0.000000 1.595455 0.062879
v -0.000000 1.595455 -0.062879
v -0.000000 1.595455 -0.188636
v -0.000000 1.595455 -0.314394
v -0.000000 1.595455 -0.440152
v -0.000000 1.595455 -0.565909
v 0.005422 1.418182 0.565909
v 0.001092 1.418182 0.440152
v -0.000000 1.418182 0.314394
v -0.000000 1.418182 0.188636
v -0.000000 1.418182 0.062879
v -0.000000 1.418182 -0.062879
v -0.000000 1.418182 -0.188636
v -0.000000 1.418182 -0.314394
v -0.000000 1.418182 -0.440152
v -0.000000 1.418182 -0.565909
v -0.000000 1.240909 0.565909
v -0.000000 1.240909 0.440152
v -0.000000 1.240909 0.314394
v -0.000000 1.240909 0.188636
v -0.000000 1.240909 0.062879
v -0.000000 1.240909 -0.062879
v -0.000000 1.240909 -0.188636
v -0.000000 1.240909 -0.314394
v -0.000000 1.240909 -0.440152
v -0.000000 1.240909 -0.565909
v -0.000000 1.063636 0.565909
v -0.000000 1.063636 0.440152
v -0.000000 1.063636 0.314394
v -0.000000 1.063636 0.188636
v -0.000000 1.063636 0.062879
v -0.000000 1.063636 -0.062879
v -0.000000 1.063636 -0.188636
v -0.000000 1.063636 -0.314394
v -0.000000 1.063636 -0.440152
v -0.000000 1.063636 -0.565909
v 0.000000 0.886364 0.565909
v 0.000000 0.886364 0.440152
v 0.000000 0.886364 0.314394
v 0.000000 0.886364 0.188636
v 0.000000 0.886364 0.062879
v 0.000000 0.886364 -0.062879
v 0.000000 0.886364 -0.188636
v 0.000000 0.886364 -0.314394
v 0.000000 0.886364 -0.440152
v 0.000000 0.886364 -0.565909
v 0.000000 0.709091 0.565909
v 0.000000 0.709091 0.440152
v 0.000000 0.709091 0.314394
v 0.000000 0.709091 0.188636
v 0.000000 0.709091 0.062879
v 0.000000 0.709091 -0.062879
v 0.000000 0.709091 -0.188636
v 0.000000 0.709091 -0.314394
v 0.000000 0.709091 -0.440152
v 0.000000 0.709091 -0.565909
v 0.000000 0.531818 0.565909
v 0.000000 0.531818 0.440152
v 0.000000 0.531818 0.314394
v 0.000000 0.531818 0.188636
v 0.000000 0.531818 0.062879
v 0.000000 0.531818 -0.062879
v 0.000000 0.531818 -0.188636
v 0.000000 0.531818 -0.314394
v 0.000000 0.531818 -0.440152
v 0.000000 0.531818 -0.565909
v 0.000000 0.354545 0.565909
v 0.000000 0.354545 0.440152
v 0.000000 0.354545 0.314394
v 0.000000 0.354545 0.188636
v 0.000000 0.354545 0.062879
v 0.000000 0.354545 -0.062879
v 0.000000 0.354545 -0.188636
v 0.000000 0.354545 -0.314394
v 0.000000 0.354545 -0.440152
v 0.000000 0.354545 -0.565909
v 0.000000 0.177273 0.565909
v 0.000000 0.177273 0.440152
v 0.000000 0.177273 0.314394
v 0.000000 0.177273 0.188636
v 0.000000 0.177273 0.062879
v 0.000000 0.177273 -0.062879
v 0.000000 0.177273 -0.188636
v 0.000000 0.177273 -0.314394
v 0.000000 0.177273 -0.440152
v 0.000000 0.177273 -0.565909
v 0.108576 1.868325 0.440152
v 0.191672 1.796496 0.565909
v 0.125329 1.674688 0.565909
v 0.081947 1.724991 0.440152
vn 1.0000 -0.0000 -0.0000
vn 0.6529 -0.6065 -0.4537
vn 0.9088 0.0699 -0.4113
vn 0.3341 0.8989 -0.2834
vn -0.0000 1.0000 -0.0000
vn 0.4704 0.8534 -0.2247
vn 0.9415 -0.1235 -0.3136
vn 0.9375 -0.0746 -0.3400
vn 0.9896 -0.0603 -0.1308
vn 0.9842 -0.0216 -0.1755
vn 0.9995 -0.0111 -0.0281
vn 0.9988 -0.0000 -0.0498
vn 0.8535 -0.5022 -0.1389
vn 0.5815 -0.7680 -0.2684
vn 0.9336 -0.2990 -0.1976
vn 0.8326 0.4353 -0.3425
vn 0.9813 -0.1273 -0.1446
vn 0.9990 -0.0231 -0.0378
vn 1.0000 -0.0000 -0.0001
vn 0.9874 -0.1546 -0.0329
vn 0.8840 -0.4487 -0.1312
vn 0.9953 -0.0850 -0.0457
vn 0.9997 -0.0207 -0.0113
vn 1.0000 -0.0001 -0.0000
vn 0.9998 -0.0177 -0.0035
vn 0.9831 -0.1820 -0.0173
vn 0.9999 -0.0116 -0.0034
vn 1.0000 -0.0021 -0.0009
vn 0.4407 0.8487 -0.2923
vn 0.4699 0.8237 -0.3173
vn 0.3020 0.9247 -0.2316
vn 0.3897 0.8944 -0.2193
vt 0.877844 0.000161
vt 0.960914 0.090459
vt 0.877954 0.090525
vt 0.882567 0.904361
vt 0.966693 0.993907
vt 0.883876 0.994606
vt 0.881398 0.814021
vt 0.965436 0.903701
vt 0.880441 0.723598
vt 0.964329 0.813455
vt 0.879701 0.633121
vt 0.963430 0.723147
vt 0.962185 0.542366
vt 0.962736 0.632774
vt 0.879154 0.542631
vt 0.961766 0.451957
vt 0.878750 0.452155
vt 0.961449 0.361564
vt 0.878450 0.361710
vt 0.961216 0.271186
vt 0.878235 0.271293
vt 0.961043 0.180820
vt 0.878078 0.180900
vt 0.000098 0.928481
vt 0.107782 0.875980
vt 0.101162 0.947467
vt 0.000000 0.000000
vt 0.206176 0.970413
vt 0.296203 0.913918
vt 0.299539 0.985714
vt 0.382483 0.910861
vt 0.386267 0.996524
vt 0.466579 0.909102
vt 0.469737 0.999902
vt 0.552586 0.998356
vt 0.550165 0.907812
vt 0.635415 0.997160
vt 0.633470 0.906749
vt 0.718237 0.996185
vt 0.716605 0.905851
vt 0.801057 0.995352
vt 0.799627 0.905068
vt 0.035407 0.805013
vt 0.020957 0.864779
vt 0.206486 0.820501
vt 0.202280 0.894849
vt 0.293967 0.819772
vt 0.379798 0.818681
vt 0.464329 0.817698
vt 0.548277 0.816805
vt 0.631856 0.816003
vt 0.715192 0.815281
vt 0.798359 0.814626
vt 0.124715 0.724136
vt 0.118995 0.814723
vt 0.209368 0.725834
vt 0.294213 0.726420
vt 0.378936 0.726378
vt 0.463206 0.726042
vt 0.547104 0.725583
vt 0.630716 0.725079
vt 0.714112 0.724570
vt 0.797342 0.724074
vt 0.044373 0.631515
vt 0.041104 0.721706
vt 0.127436 0.632830
vt 0.211052 0.633840
vt 0.294974 0.634428
vt 0.378951 0.634653
vt 0.462804 0.634624
vt 0.546486 0.634436
vt 0.629996 0.634157
vt 0.713357 0.633827
vt 0.796585 0.633477
vt 0.046118 0.541404
vt 0.129027 0.542146
vt 0.212252 0.542771
vt 0.295689 0.543210
vt 0.379220 0.543452
vt 0.462743 0.543527
vt 0.546203 0.543475
vt 0.629572 0.543333
vt 0.712860 0.543125
vt 0.796048 0.542888
vt 0.047125 0.451248
vt 0.129996 0.451693
vt 0.213048 0.452090
vt 0.296239 0.452397
vt 0.379512 0.452595
vt 0.462812 0.452689
vt 0.546097 0.452692
vt 0.712530 0.452503
vt 0.795670 0.452340
vt 0.047743 0.361054
vt 0.130606 0.361334
vt 0.213577 0.361592
vt 0.296637 0.361803
vt 0.379758 0.361952
vt 0.462911 0.362035
vt 0.546070 0.362056
vt 0.629342 0.452624
vt 0.712326 0.361952
vt 0.795408 0.361842
vt 0.048141 0.270833
vt 0.131004 0.271017
vt 0.213931 0.271190
vt 0.296917 0.271335
vt 0.379946 0.271443
vt 0.463003 0.271507
vt 0.546071 0.271529
vt 0.629215 0.362022
vt 0.629139 0.271512
vt 0.795226 0.271388
vt 0.048409 0.180595
vt 0.131272 0.180723
vt 0.214174 0.180843
vt 0.297112 0.180944
vt 0.380081 0.181019
vt 0.463072 0.181065
vt 0.546077 0.181080
vt 0.629088 0.181066
vt 0.712192 0.271463
vt 0.795093 0.180972
vt 0.048604 0.090348
vt 0.131463 0.090444
vt 0.214344 0.090532
vt 0.297248 0.090604
vt 0.380172 0.090656
vt 0.463116 0.090683
vt 0.546074 0.090687
vt 0.629043 0.090670
vt 0.712096 0.181028
vt 0.794987 0.090584
vt 0.048761 0.000098
vt 0.131613 0.000182
vt 0.214472 0.000253
vt 0.297342 0.000307
vt 0.380228 0.000339
vt 0.463131 0.000349
vt 0.546052 0.000338
vt 0.628988 0.000309
vt 0.712016 0.090634
vt 0.794890 0.000218
vt 0.960799 0.000098
vt 0.711936 0.000267
s 1
f 34/1/1 35/2/1 144/3/1
f 54/4/1 3/5/1 5/6/1
f 64/7/1 44/8/1 54/4/1
f 74/9/1 43/10/1 64/7/1
f 84/11/1 42/12/1 74/9/1
f 84/11/1 40/13/1 41/14/1
f 94/15/1 39/16/1 40/13/1
f 104/17/1 38/18/1 39/16/1
f 114/19/1 37/20/1 38/18/1
f 124/21/1 36/22/1 37/20/1
f 144/3/1 36/22/1 134/23/1
f 1/24/2 45/25/3 14/26/4
s 0
f 13/27/5 146/27/5 145/27/5
s 1
f 13/28/6 47/29/7 12/30/8
f 12/30/8 48/31/9 11/32/10
f 11/32/10 49/33/11 10/34/12
f 49/33/11 9/35/1 10/34/12
f 50/36/1 8/37/1 9/35/1
f 51/38/1 7/39/1 8/37/1
f 52/40/1 6/41/1 7/39/1
f 53/42/1 5/6/1 6/41/1
f 16/43/13 45/25/3 15/44/14
f 45/25/3 56/45/15 46/46/16
f 46/46/16 57/47/17 47/29/7
f 57/47/17 48/31/9 47/29/7
f 58/48/18 49/33/11 48/31/9
f 59/49/19 50/36/1 49/33/11
f 60/50/1 51/38/1 50/36/1
f 61/51/1 52/40/1 51/38/1
f 62/52/1 53/42/1 52/40/1
f 63/53/1 54/4/1 53/42/1
f 16/43/13 65/54/20 55/55/21
f 55/55/21 66/56/22 56/45/15
f 66/56/22 57/47/17 56/45/15
f 67/57/23 58/48/18 57/47/17
f 68/58/24 59/49/19 58/48/18
f 69/59/1 60/50/1 59/49/19
f 70/60/1 61/51/1 60/50/1
f 71/61/1 62/52/1 61/51/1
f 72/62/1 63/53/1 62/52/1
f 73/63/1 64/7/1 63/53/1
f 18/64/25 65/54/20 17/65/26
f 75/66/27 66/56/22 65/54/20
f 76/67/28 67/57/23 66/56/22
f 77/68/1 68/58/24 67/57/23
f 78/69/1 69/59/1 68/58/24
f 79/70/1 70/60/1 69/59/1
f 80/71/1 71/61/1 70/60/1
f 81/72/1 72/62/1 71/61/1
f 82/73/1 73/63/1 72/62/1
f 83/74/1 74/9/1 73/63/1
f 19/75/1 75/66/27 18/64/25
f 85/76/1 76/67/28 75/66/27
f 86/77/1 77/68/1 76/67/28
f 87/78/1 78/69/1 77/68/1
f 88/79/1 79/70/1 78/69/1
f 89/80/1 80/71/1 79/70/1
f 90/81/1 81/72/1 80/71/1
f 91/82/1 82/73/1 81/72/1
f 92/83/1 83/74/1 82/73/1
f 93/84/1 84/11/1 83/74/1
f 20/85/1 85/76/1 19/75/1
f 95/86/1 86/77/1 85/76/1
f 96/87/1 87/78/1 86/77/1
f 97/88/1 88/79/1 87/78/1
f 98/89/1 89/80/1 88/79/1
f 99/90/1 90/81/1 89/80/1
f 100/91/1 91/82/1 90/81/1
f 91/82/1 102/92/1 92/83/1
f 102/92/1 93/84/1 92/83/1
f 103/93/1 94/15/1 93/84/1
f 21/94/1 95/86/1 20/85/1
f 105/95/1 96/87/1 95/86/1
f 106/96/1 97/88/1 96/87/1
f 107/97/1 98/89/1 97/88/1
f 108/98/1 99/90/1 98/89/1
f 109/99/1 100/91/1 99/90/1
f 110/100/1 101/101/1 100/91/1
f 101/101/1 112/102/1 102/92/1
f 102/92/1 113/103/1 103/93/1
f 103/93/1 114/19/1 104/17/1
f 22/104/1 105/95/1 21/94/1
f 115/105/1 106/96/1 105/95/1
f 116/106/1 107/97/1 106/96/1
f 117/107/1 108/98/1 107/97/1
f 118/108/1 109/99/1 108/98/1
f 119/109/1 110/100/1 109/99/1
f 120/110/1 111/111/1 110/100/1
f 121/112/1 112/102/1 111/111/1
f 112/102/1 123/113/1 113/103/1
f 113/103/1 124/21/1 114/19/1
f 23/114/1 115/105/1 22/104/1
f 125/115/1 116/106/1 115/105/1
f 126/116/1 117/107/1 116/106/1
f 127/117/1 118/108/1 117/107/1
f 128/118/1 119/109/1 118/108/1
f 129/119/1 120/110/1 119/109/1
f 130/120/1 121/112/1 120/110/1
f 131/121/1 122/122/1 121/112/1
f 122/122/1 133/123/1 123/113/1
f 123/113/1 134/23/1 124/21/1
f 24/124/1 125/115/1 23/114/1
f 135/125/1 126/116/1 125/115/1
f 136/126/1 127/117/1 126/116/1
f 137/127/1 128/118/1 127/117/1
f 138/128/1 129/119/1 128/118/1
f 139/129/1 130/120/1 129/119/1
f 140/130/1 131/121/1 130/120/1
f 141/131/1 132/132/1 131/121/1
f 132/132/1 143/133/1 133/123/1
f 133/123/1 144/3/1 134/23/1
f 2/134/1 135/125/1 24/124/1
f 25/135/1 136/126/1 135/125/1
f 26/136/1 137/127/1 136/126/1
f 27/137/1 138/128/1 137/127/1
f 28/138/1 139/129/1 138/128/1
f 29/139/1 140/130/1 139/129/1
f 30/140/1 141/131/1 140/130/1
f 31/141/1 142/142/1 141/131/1
f 142/142/1 33/143/1 143/133/1
f 143/133/1 34/1/1 144/3/1
f 146/26/29 148/46/30 145/28/31
f 45/25/3 148/46/30 147/25/32
f 14/26/4 147/25/32 146/26/29
f 46/46/16 145/28/31 148/46/30
f 34/1/1 4/144/1 35/2/1
f 54/4/1 44/8/1 3/5/1
f 64/7/1 43/10/1 44/8/1
f 74/9/1 42/12/1 43/10/1
f 84/11/1 41/14/1 42/12/1
f 84/11/1 94/15/1 40/13/1
f 94/15/1 104/17/1 39/16/1
f 104/17/1 114/19/1 38/18/1
f 114/19/1 124/21/1 37/20/1
f 124/21/1 134/23/1 36/22/1
f 144/3/1 35/2/1 36/22/1
f 1/24/2 15/44/14 45/25/3
s 0
f 13/27/5 14/27/5 146/27/5
s 1
f 13/28/6 46/46/16 47/29/7
f 12/30/8 47/29/7 48/31/9
f 11/32/10 48/31/9 49/33/11
f 49/33/11 50/36/1 9/35/1
f 50/36/1 51/38/1 8/37/1
f 51/38/1 52/40/1 7/39/1
f 52/40/1 53/42/1 6/41/1
f 53/42/1 54/4/1 5/6/1
f 16/43/13 55/55/21 45/25/3
f 45/25/3 55/55/21 56/45/15
f 46/46/16 56/45/15 57/47/17
f 57/47/17 58/48/18 48/31/9
f 58/48/18 59/49/19 49/33/11
f 59/49/19 60/50/1 50/36/1
f 60/50/1 61/51/1 51/38/1
f 61/51/1 62/52/1 52/40/1
f 62/52/1 63/53/1 53/42/1
f 63/53/1 64/7/1 54/4/1
f 16/43/13 17/65/26 65/54/20
f 55/55/21 65/54/20 66/56/22
f 66/56/22 67/57/23 57/47/17
f 67/57/23 68/58/24 58/48/18
f 68/58/24 69/59/1 59/49/19
f 69/59/1 70/60/1 60/50/1
f 70/60/1 71/61/1 61/51/1
f 71/61/1 72/62/1 62/52/1
f 72/62/1 73/63/1 63/53/1
f 73/63/1 74/9/1 64/7/1
f 18/64/25 75/66/27 65/54/20
f 75/66/27 76/67/28 66/56/22
f 76/67/28 77/68/1 67/57/23
f 77/68/1 78/69/1 68/58/24
f 78/69/1 79/70/1 69/59/1
f 79/70/1 80/71/1 70/60/1
f 80/71/1 81/72/1 71/61/1
f 81/72/1 82/73/1 72/62/1
f 82/73/1 83/74/1 73/63/1
f 83/74/1 84/11/1 74/9/1
f 19/75/1 85/76/1 75/66/27
f 85/76/1 86/77/1 76/67/28
f 86/77/1 87/78/1 77/68/1
f 87/78/1 88/79/1 78/69/1
f 88/79/1 89/80/1 79/70/1
f 89/80/1 90/81/1 80/71/1
f 90/81/1 91/82/1 81/72/1
f 91/82/1 92/83/1 82/73/1
f 92/83/1 93/84/1 83/74/1
f 93/84/1 94/15/1 84/11/1
f 20/85/1 95/86/1 85/76/1
f 95/86/1 96/87/1 86/77/1
f 96/87/1 97/88/1 87/78/1
f 97/88/1 98/89/1 88/79/1
f 98/89/1 99/90/1 89/80/1
f 99/90/1 100/91/1 90/81/1
f 100/91/1 101/101/1 91/82/1
f 91/82/1 101/101/1 102/92/1
f 102/92/1 103/93/1 93/84/1
f 103/93/1 104/17/1 94/15/1
f 21/94/1 105/95/1 95/86/1
f 105/95/1 106/96/1 96/87/1
f 106/96/1 107/97/1 97/88/1
f 107/97/1 108/98/1 98/89/1
f 108/98/1 109/99/1 99/90/1
f 109/99/1 110/100/1 100/91/1
f 110/100/1 111/111/1 101/101/1
f 101/101/1 111/111/1 112/102/1
f 102/92/1 112/102/1 113/103/1
f 103/93/1 113/103/1 114/19/1
f 22/104/1 115/105/1 105/95/1
f 115/105/1 116/106/1 106/96/1
f 116/106/1 117/107/1 107/97/1
f 117/107/1 118/108/1 108/98/1
f 118/108/1 119/109/1 109/99/1
f 119/109/1 120/110/1 110/100/1
f 120/110/1 121/112/1 111/111/1
f 121/112/1 122/122/1 112/102/1
f 112/102/1 122/122/1 123/113/1
f 113/103/1 123/113/1 124/21/1
f 23/114/1 125/115/1 115/105/1
f 125/115/1 126/116/1 116/106/1
f 126/116/1 127/117/1 117/107/1
f 127/117/1 128/118/1 118/108/1
f 128/118/1 129/119/1 119/109/1
f 129/119/1 130/120/1 120/110/1
f 130/120/1 131/121/1 121/112/1
f 131/121/1 132/132/1 122/122/1
f 122/122/1 132/132/1 133/123/1
f 123/113/1 133/123/1 134/23/1
f 24/124/1 135/125/1 125/115/1
f 135/125/1 136/126/1 126/116/1
f 136/126/1 137/127/1 127/117/1
f 137/127/1 138/128/1 128/118/1
f 138/128/1 139/129/1 129/119/1
f 139/129/1 140/130/1 130/120/1
f 140/130/1 141/131/1 131/121/1
f 141/131/1 142/142/1 132/132/1
f 132/132/1 142/142/1 143/133/1
f 133/123/1 143/133/1 144/3/1
f 2/134/1 25/135/1 135/125/1
f 25/135/1 26/136/1 136/126/1
f 26/136/1 27/137/1 137/127/1
f 27/137/1 28/138/1 138/128/1
f 28/138/1 29/139/1 139/129/1
f 29/139/1 30/140/1 140/130/1
f 30/140/1 31/141/1 141/131/1
f 31/141/1 32/145/1 142/142/1
f 142/142/1 32/145/1 33/143/1
f 143/133/1 33/143/1 34/1/1
f 146/26/29 147/25/32 148/46/30
f 45/25/3 46/46/16 148/46/30
f 14/26/4 45/25/3 147/25/32
f 46/46/16 13/28/6 145/28/31
